<svg width="102" height="61" viewBox="0 0 102 61" fill="none" xmlns="http://www.w3.org/2000/svg">
<path d="M100.99 32.4215V37.7759H94.3108C90.6054 37.7759 87.6012 34.5819 87.6012 30.6423V19.9041H82.9336L83.0154 14.7558H92.5981V14.0532H90.999C89.1221 14.0532 87.6012 12.4355 87.6012 10.4406V7.81421H94.2752V14.7563H100.868V19.9046H94.2343V32.4226H100.99V32.4215Z" fill="#000000"/>
<path d="M48.4043 10.4926V14.7575H55.0375V19.9041H48.4453V37.776H41.7271V24.2193C41.7271 22.2238 43.2486 20.6068 45.1249 20.6068H46.5641V19.9041H38.8594V14.7575H41.7712V12.3622C41.7712 8.37173 44.8142 5.13647 48.5674 5.13647H55.6506V10.4926H48.4043Z" fill="#000000"/>
<path d="M27.2351 14.2051C32.1853 14.2051 35.3011 17.041 35.3011 23.3901V37.8228H28.7093V24.5214C28.7093 17.9052 19.6605 17.9052 19.6605 26.0453V37.8228H13.0273V14.8027H19.6605V17.9052H20.2337C21.7898 15.4386 24.1236 14.2051 27.2351 14.2051Z" fill="#000000"/>
<path d="M72.3406 14.2051C77.2908 14.2051 80.4065 17.041 80.4065 23.3901V37.8228H73.8148V24.5214C73.8148 17.9052 64.766 17.9052 64.766 26.0453V37.8228H58.1328V14.8027H64.766V17.9052H65.3392C66.8953 15.4386 69.229 14.2051 72.3406 14.2051Z" fill="#000000"/>
<path d="M83.3852 53.1277V52.2025C83.3852 50.9752 84.3213 49.98 85.4757 49.98C86.6301 49.98 87.5662 50.9752 87.5662 52.2025V53.1277H90.1858V52.1483C90.1858 49.3824 88.0767 47.1406 85.4757 47.1406C82.8742 47.1406 80.7656 49.3829 80.7656 52.1483V53.1277H83.3852Z" fill="#000000"/>
<path d="M77.9402 48.2015V53.095C77.9402 54.6234 76.7746 55.8626 75.3371 55.8626H71.9727V53.0233H75.3206V48.2009H77.9402V48.2015Z" fill="#000000"/>
<path d="M64.364 44.2427H62.2539V46.158H64.364V44.2427Z" fill="#000000"/>
<path d="M68.3132 44.2427H66.2031V46.158H68.3132V44.2427Z" fill="#000000"/>
<path d="M77.6765 44.2427H75.5664V46.158H77.6765V44.2427Z" fill="#000000"/>
<path d="M86.5281 44.2427H84.418V46.158H86.5281V44.2427Z" fill="#000000"/>
<path d="M95.7039 44.2427H93.5938V46.158H95.7039V44.2427Z" fill="#000000"/>
<path d="M71.974 48.2185V53.0957C71.974 54.6241 70.8084 55.8633 69.3709 55.8633H60.7359C59.2984 55.8633 58.1328 54.6241 58.1328 53.0957V49.4436H60.7524V53.0245H69.3544V48.2185H71.974Z" fill="#000000"/>
<path d="M90.1851 53.0239C90.1851 54.5919 88.9893 55.8632 87.5145 55.8632H77.9414V53.0239H90.1851Z" fill="#000000"/>
<path d="M95.9647 48.2015V53.095C95.9647 54.6234 94.7991 55.8626 93.3615 55.8626H90.1836V53.0233H93.3451V48.2009H95.9647V48.2015Z" fill="#000000"/>
<path d="M100.991 45.9946H98.3711V55.8636H100.991V45.9946Z" fill="#000000"/>
<path d="M1.00781 14.7563V37.8234H7.64047V7.8125H1.00781V10.4406C1.00781 12.4349 2.52825 14.052 4.40463 14.052H6.00475V14.7558H1.00781V14.7563Z" fill="#000000"/>
</svg>
